<svg width="190" height="55" viewBox="0 0 190 55" fill="none" xmlns="http://www.w3.org/2000/svg">
<path d="M26.2734 27.9502H27.6094V44H26.2734V27.9502ZM31.6172 27.9502H32.9531V44H31.6172V27.9502ZM28.9453 27.9502H30.2812V44H28.9453V27.9502ZM24.9375 27.9502V44C22.5872 44.8906 20.1504 45.3359 17.627 45.3359C15.4375 45.3359 13.3408 44.9339 11.3369 44.1299C9.33301 43.3258 7.57031 42.2126 6.04883 40.79C4.52734 39.3551 3.30892 37.5863 2.39355 35.4834C1.49056 33.3682 1.03906 31.0859 1.03906 28.6367C1.03906 26.373 1.47819 24.2145 2.35645 22.1611C3.24707 20.0954 4.43457 18.3203 5.91895 16.8359C7.41569 15.3392 9.19076 14.1517 11.2441 13.2734C13.3099 12.3828 15.4746 11.9375 17.7383 11.9375C20.5586 11.9375 23.181 12.5931 25.6055 13.9043C28.0299 15.2155 30.0091 16.9967 31.543 19.248L30.4297 19.9717C29.0195 17.9059 27.195 16.2731 24.9561 15.0732C22.7295 13.8734 20.3236 13.2734 17.7383 13.2734C15.6602 13.2734 13.6686 13.6816 11.7637 14.498C9.87109 15.3021 8.23828 16.3906 6.86523 17.7637C5.49219 19.1367 4.39746 20.7757 3.58105 22.6807C2.77702 24.5732 2.375 26.5586 2.375 28.6367C2.375 30.8757 2.78939 32.9661 3.61816 34.9082C4.45931 36.8503 5.57259 38.4769 6.95801 39.7881C8.35579 41.0993 9.97624 42.1322 11.8193 42.8867C13.6624 43.6289 15.5798 44 17.5713 44C19.6618 44 21.6719 43.6722 23.6016 43.0166V41.7363C21.7585 42.3548 19.8226 42.6641 17.7939 42.6641C16.3219 42.6641 14.887 42.46 13.4893 42.0518C12.1038 41.6312 10.8174 41.0189 9.62988 40.2148C8.45475 39.3984 7.42188 38.4336 6.53125 37.3203C5.65299 36.1947 4.96029 34.8896 4.45312 33.4053C3.95833 31.9085 3.71094 30.319 3.71094 28.6367C3.71094 26.1009 4.33561 23.7568 5.58496 21.6045C6.84668 19.4521 8.55371 17.7513 10.7061 16.502C12.8584 15.2402 15.2025 14.6094 17.7383 14.6094C20.1133 14.6094 22.3213 15.166 24.3623 16.2793C26.4033 17.3802 28.0671 18.877 29.3535 20.7695L28.2402 21.4932C27.0775 19.7861 25.5684 18.4378 23.7129 17.4482C21.8698 16.4463 19.8783 15.9453 17.7383 15.9453C16.0189 15.9453 14.3737 16.2793 12.8027 16.9473C11.2318 17.6152 9.87728 18.5182 8.73926 19.6562C7.61361 20.7819 6.7168 22.1302 6.04883 23.7012C5.38086 25.2721 5.04688 26.9173 5.04688 28.6367C5.04688 30.1829 5.26953 31.6364 5.71484 32.9971C6.17253 34.3454 6.7972 35.5267 7.58887 36.541C8.3929 37.543 9.32682 38.4089 10.3906 39.1387C11.4544 39.8561 12.611 40.4004 13.8604 40.7715C15.1221 41.1426 16.4147 41.3281 17.7383 41.3281C19.7917 41.3281 21.7461 40.9818 23.6016 40.2891V38.9531C21.7708 39.6582 19.8597 40.0107 17.8682 40.0107C16.359 40.0107 14.918 39.7572 13.5449 39.25C12.1719 38.7305 10.9473 38.0007 9.87109 37.0605C8.80729 36.1204 7.95996 34.9206 7.3291 33.4609C6.69824 32.0013 6.38281 30.3932 6.38281 28.6367C6.38281 26.5833 6.88997 24.6846 7.9043 22.9404C8.91862 21.1963 10.2979 19.8171 12.042 18.8027C13.7861 17.7884 15.6849 17.2812 17.7383 17.2812C19.6556 17.2812 21.4368 17.7266 23.082 18.6172C24.7396 19.5078 26.0879 20.7201 27.127 22.2539L26.0137 22.9775C25.0983 21.6416 23.9108 20.584 22.4512 19.8047C21.0039 19.013 19.4329 18.6172 17.7383 18.6172C15.9199 18.6172 14.2438 19.0687 12.71 19.9717C11.1761 20.8623 9.95768 22.0745 9.05469 23.6084C8.16406 25.1423 7.71875 26.8184 7.71875 28.6367C7.71875 29.8984 7.89811 31.0736 8.25684 32.1621C8.61556 33.2507 9.11035 34.1908 9.74121 34.9824C10.3721 35.7741 11.1081 36.4482 11.9492 37.0049C12.8027 37.5615 13.7181 37.9821 14.6953 38.2666C15.6725 38.5387 16.6868 38.6748 17.7383 38.6748C19.8288 38.6748 21.7832 38.2604 23.6016 37.4316V36.1514C21.8451 36.9307 19.9463 37.3203 17.9053 37.3203C16.7301 37.3203 15.623 37.141 14.584 36.7822C13.5449 36.4235 12.6048 35.8978 11.7637 35.2051C10.9349 34.5124 10.2731 33.6032 9.77832 32.4775C9.2959 31.3395 9.05469 30.0592 9.05469 28.6367C9.05469 27.4616 9.28353 26.3421 9.74121 25.2783C10.1989 24.2021 10.8174 23.2744 11.5967 22.4951C12.376 21.7158 13.2975 21.0973 14.3613 20.6396C15.4375 20.182 16.5632 19.9531 17.7383 19.9531C19.2103 19.9531 20.5771 20.2995 21.8389 20.9922C23.1006 21.6725 24.1273 22.6003 24.9189 23.7754L23.8242 24.499C23.1562 23.5094 22.2842 22.7301 21.208 22.1611C20.1442 21.5798 18.9876 21.2891 17.7383 21.2891C15.7096 21.2891 13.9779 22.0065 12.543 23.4414C11.1081 24.8763 10.3906 26.6081 10.3906 28.6367C10.3906 29.8861 10.5947 30.9932 11.0029 31.958C11.4111 32.9105 11.9678 33.6774 12.6729 34.2588C13.3903 34.8278 14.182 35.2607 15.0479 35.5576C15.9261 35.8421 16.8662 35.9844 17.8682 35.9844C19.9215 35.9844 21.8327 35.5576 23.6016 34.7041V27.9502H24.9375ZM46.4424 26.874C45.4033 27.9131 44.8838 29.1686 44.8838 30.6406C44.8838 32.1126 45.4033 33.3743 46.4424 34.4258C47.4938 35.4648 48.7555 35.9844 50.2275 35.9844C51.6995 35.9844 52.9551 35.4648 53.9941 34.4258C55.0456 33.3743 55.5713 32.1126 55.5713 30.6406C55.5713 29.1686 55.0456 27.9131 53.9941 26.874C52.9551 25.8226 51.6995 25.2969 50.2275 25.2969C48.7555 25.2969 47.4938 25.8226 46.4424 26.874ZM45.4961 35.3721C44.1973 34.0609 43.5479 32.4837 43.5479 30.6406C43.5479 28.7975 44.1973 27.2266 45.4961 25.9277C46.8073 24.6165 48.3844 23.9609 50.2275 23.9609C52.0706 23.9609 53.6416 24.6165 54.9404 25.9277C56.2516 27.2266 56.9072 28.7975 56.9072 30.6406C56.9072 32.4837 56.2516 34.0609 54.9404 35.3721C53.6416 36.6709 52.0706 37.3203 50.2275 37.3203C48.3844 37.3203 46.8073 36.6709 45.4961 35.3721ZM44.5498 24.9814C42.9912 26.5524 42.2119 28.4388 42.2119 30.6406C42.2119 32.8424 42.9912 34.7288 44.5498 36.2998C46.1208 37.8708 48.0133 38.6562 50.2275 38.6562C52.4417 38.6562 54.3281 37.8708 55.8867 36.2998C57.4577 34.7288 58.2432 32.8424 58.2432 30.6406C58.2432 28.4388 57.4577 26.5524 55.8867 24.9814C54.3281 23.4105 52.4417 22.625 50.2275 22.625C48.0133 22.625 46.1208 23.4105 44.5498 24.9814ZM42.1191 35.335C41.2904 33.9001 40.876 32.3353 40.876 30.6406C40.876 28.946 41.2904 27.3812 42.1191 25.9463C42.9603 24.5114 44.0983 23.3796 45.5332 22.5508C46.9681 21.7096 48.5329 21.2891 50.2275 21.2891C51.9222 21.2891 53.487 21.7096 54.9219 22.5508C56.3568 23.3796 57.4886 24.5114 58.3174 25.9463C59.1585 27.3812 59.5791 28.946 59.5791 30.6406C59.5791 32.3353 59.1585 33.9001 58.3174 35.335C57.4886 36.7699 56.3568 37.9079 54.9219 38.749C53.487 39.5778 51.9222 39.9922 50.2275 39.9922C48.5329 39.9922 46.9681 39.5778 45.5332 38.749C44.0983 37.9079 42.9603 36.7699 42.1191 35.335ZM40.375 26.5029C39.8184 27.8141 39.54 29.1934 39.54 30.6406C39.54 32.0879 39.8184 33.4733 40.375 34.7969C40.944 36.1081 41.7048 37.2461 42.6572 38.2109C43.6221 39.1634 44.7601 39.9242 46.0713 40.4932C47.3949 41.0498 48.7803 41.3281 50.2275 41.3281C51.6748 41.3281 53.054 41.0498 54.3652 40.4932C55.6888 39.9242 56.8268 39.1634 57.7793 38.2109C58.7441 37.2461 59.5049 36.1081 60.0615 34.7969C60.6305 33.4733 60.915 32.0879 60.915 30.6406C60.915 29.1934 60.6305 27.8141 60.0615 26.5029C59.5049 25.1794 58.7441 24.0413 57.7793 23.0889C56.8268 22.124 55.6888 21.3633 54.3652 20.8066C53.054 20.2376 51.6748 19.9531 50.2275 19.9531C48.7803 19.9531 47.3949 20.2376 46.0713 20.8066C44.7601 21.3633 43.6221 22.124 42.6572 23.0889C41.7048 24.0413 40.944 25.1794 40.375 26.5029ZM39.1504 35.3164C38.5195 33.832 38.2041 32.2734 38.2041 30.6406C38.2041 29.0078 38.5195 27.4492 39.1504 25.9648C39.7936 24.4805 40.6471 23.2064 41.7109 22.1426C42.7871 21.0664 44.0674 20.2129 45.5518 19.582C47.0361 18.9388 48.5947 18.6172 50.2275 18.6172C51.8604 18.6172 53.4189 18.9388 54.9033 19.582C56.3877 20.2129 57.6618 21.0664 58.7256 22.1426C59.8018 23.2064 60.6553 24.4805 61.2861 25.9648C61.9294 27.4492 62.251 29.0078 62.251 30.6406C62.251 32.2734 61.9294 33.832 61.2861 35.3164C60.6553 36.8008 59.8018 38.0811 58.7256 39.1572C57.6618 40.221 56.3877 41.0745 54.9033 41.7178C53.4189 42.3486 51.8604 42.6641 50.2275 42.6641C48.5947 42.6641 47.0361 42.3486 45.5518 41.7178C44.0674 41.0745 42.7871 40.221 41.7109 39.1572C40.6471 38.0811 39.7936 36.8008 39.1504 35.3164ZM37.9258 25.4639C37.2207 27.109 36.8682 28.8346 36.8682 30.6406C36.8682 32.4466 37.2207 34.1784 37.9258 35.8359C38.6309 37.4811 39.5771 38.9036 40.7646 40.1035C41.9645 41.291 43.387 42.2373 45.0322 42.9424C46.6898 43.6475 48.4215 44 50.2275 44C52.0335 44 53.7591 43.6475 55.4043 42.9424C57.0618 42.2373 58.4844 41.291 59.6719 40.1035C60.8717 38.9036 61.8242 37.4811 62.5293 35.8359C63.2344 34.1784 63.5869 32.4466 63.5869 30.6406C63.5869 28.8346 63.2344 27.109 62.5293 25.4639C61.8242 23.8063 60.8717 22.3838 59.6719 21.1963C58.4844 19.9964 57.0618 19.0439 55.4043 18.3389C53.7591 17.6338 52.0335 17.2812 50.2275 17.2812C48.4215 17.2812 46.6898 17.6338 45.0322 18.3389C43.387 19.0439 41.9645 19.9964 40.7646 21.1963C39.5771 22.3838 38.6309 23.8063 37.9258 25.4639ZM36.7012 36.3555C35.9219 34.5371 35.5322 32.6322 35.5322 30.6406C35.5322 28.6491 35.9219 26.7503 36.7012 24.9443C37.4805 23.126 38.5257 21.5612 39.8369 20.25C41.1481 18.9388 42.7067 17.8936 44.5127 17.1143C46.3311 16.335 48.236 15.9453 50.2275 15.9453C52.2191 15.9453 54.1178 16.335 55.9238 17.1143C57.7422 17.8936 59.307 18.9388 60.6182 20.25C61.9294 21.5612 62.9746 23.126 63.7539 24.9443C64.5332 26.7503 64.9229 28.6491 64.9229 30.6406C64.9229 32.6322 64.5332 34.5371 63.7539 36.3555C62.9746 38.1615 61.9294 39.7201 60.6182 41.0312C59.307 42.3424 57.7422 43.3877 55.9238 44.167C54.1178 44.9463 52.2191 45.3359 50.2275 45.3359C48.236 45.3359 46.3311 44.9463 44.5127 44.167C42.7067 43.3877 41.1481 42.3424 39.8369 41.0312C38.5257 39.7201 37.4805 38.1615 36.7012 36.3555ZM67.335 14.6094V13.2734H87.374V14.6094H67.335ZM67.335 17.2812V15.9453H87.374V17.2812H67.335ZM67.335 19.9531V18.6172H87.374V19.9531H82.0303V44H80.6943V19.9531H79.3584V44H78.0225V19.9531H76.6865V44H75.3506V19.9531H74.0146V44H72.6787V19.9531H67.335ZM98.4326 17.2812H99.7686V44H98.4326V17.2812ZM95.7607 17.2812H97.0967V44H95.7607V17.2812ZM93.0889 17.2812H94.4248V44H93.0889V17.2812ZM90.417 17.2812H91.7529V44H90.417V17.2812ZM122.479 26.4844L121.403 27.3008C120.327 25.9648 118.942 25.2969 117.247 25.2969C115.775 25.2969 114.513 25.8226 113.462 26.874C112.423 27.9131 111.903 29.1686 111.903 30.6406C111.903 32.1126 112.423 33.3743 113.462 34.4258C114.513 35.4648 115.775 35.9844 117.247 35.9844C118.076 35.9844 118.849 35.805 119.566 35.4463C120.296 35.0876 120.915 34.5928 121.422 33.9619L122.461 34.834C121.842 35.6133 121.076 36.2256 120.16 36.6709C119.245 37.1038 118.274 37.3203 117.247 37.3203C115.404 37.3203 113.827 36.6709 112.516 35.3721C111.217 34.0609 110.567 32.4837 110.567 30.6406C110.567 28.7975 111.217 27.2266 112.516 25.9277C113.827 24.6165 115.404 23.9609 117.247 23.9609C118.286 23.9609 119.263 24.1898 120.179 24.6475C121.094 25.0928 121.861 25.7051 122.479 26.4844ZM124.558 24.8145L123.5 25.6309C122.758 24.6908 121.836 23.9548 120.735 23.4229C119.647 22.891 118.484 22.625 117.247 22.625C115.033 22.625 113.14 23.4105 111.569 24.9814C110.011 26.5524 109.231 28.4388 109.231 30.6406C109.231 32.8424 110.011 34.7288 111.569 36.2998C113.14 37.8708 115.033 38.6562 117.247 38.6562C118.484 38.6562 119.653 38.3903 120.754 37.8584C121.855 37.3141 122.776 36.5719 123.519 35.6318L124.539 36.4854C123.673 37.5739 122.603 38.4336 121.329 39.0645C120.055 39.6829 118.694 39.9922 117.247 39.9922C115.552 39.9922 113.988 39.5778 112.553 38.749C111.118 37.9079 109.98 36.7699 109.139 35.335C108.31 33.9001 107.896 32.3353 107.896 30.6406C107.896 28.946 108.31 27.3812 109.139 25.9463C109.98 24.5114 111.118 23.3796 112.553 22.5508C113.988 21.7096 115.552 21.2891 117.247 21.2891C118.694 21.2891 120.055 21.6045 121.329 22.2354C122.616 22.8538 123.692 23.7135 124.558 24.8145ZM126.654 23.1445L125.615 23.9795C124.613 22.7301 123.382 21.7467 121.923 21.0293C120.463 20.3118 118.905 19.9531 117.247 19.9531C115.8 19.9531 114.414 20.2376 113.091 20.8066C111.78 21.3633 110.642 22.124 109.677 23.0889C108.724 24.0413 107.964 25.1794 107.395 26.5029C106.838 27.8141 106.56 29.1934 106.56 30.6406C106.56 32.0879 106.838 33.4733 107.395 34.7969C107.964 36.1081 108.724 37.2461 109.677 38.2109C110.642 39.1634 111.78 39.9242 113.091 40.4932C114.414 41.0498 115.8 41.3281 117.247 41.3281C118.905 41.3281 120.463 40.9694 121.923 40.252C123.382 39.5345 124.613 38.5511 125.615 37.3018L126.617 38.1738C125.492 39.5716 124.112 40.6725 122.479 41.4766C120.847 42.2682 119.103 42.6641 117.247 42.6641C115.614 42.6641 114.056 42.3486 112.571 41.7178C111.087 41.0745 109.807 40.221 108.73 39.1572C107.667 38.0811 106.813 36.8008 106.17 35.3164C105.539 33.832 105.224 32.2734 105.224 30.6406C105.224 29.0078 105.539 27.4492 106.17 25.9648C106.813 24.4805 107.667 23.2064 108.73 22.1426C109.807 21.0664 111.087 20.2129 112.571 19.582C114.056 18.9388 115.614 18.6172 117.247 18.6172C119.115 18.6172 120.865 19.0192 122.498 19.8232C124.143 20.6273 125.529 21.7344 126.654 23.1445ZM128.732 21.4746L127.656 22.2725C126.407 20.7262 124.873 19.5078 123.055 18.6172C121.249 17.7266 119.313 17.2812 117.247 17.2812C115.441 17.2812 113.709 17.6338 112.052 18.3389C110.407 19.0439 108.984 19.9964 107.784 21.1963C106.597 22.3838 105.65 23.8063 104.945 25.4639C104.24 27.109 103.888 28.8346 103.888 30.6406C103.888 32.4466 104.24 34.1784 104.945 35.8359C105.65 37.4811 106.597 38.9036 107.784 40.1035C108.984 41.291 110.407 42.2373 112.052 42.9424C113.709 43.6475 115.441 44 117.247 44C119.313 44 121.249 43.5547 123.055 42.6641C124.873 41.7734 126.407 40.555 127.656 39.0088L128.714 39.8252C127.341 41.5322 125.652 42.8805 123.648 43.8701C121.657 44.8473 119.523 45.3359 117.247 45.3359C115.256 45.3359 113.351 44.9463 111.532 44.167C109.726 43.3877 108.168 42.3424 106.856 41.0312C105.545 39.7201 104.5 38.1615 103.721 36.3555C102.941 34.5371 102.552 32.6322 102.552 30.6406C102.552 28.6491 102.941 26.7503 103.721 24.9443C104.5 23.126 105.545 21.5612 106.856 20.25C108.168 18.9388 109.726 17.8936 111.532 17.1143C113.351 16.335 115.256 15.9453 117.247 15.9453C119.523 15.9453 121.663 16.4401 123.667 17.4297C125.671 18.4069 127.359 19.7552 128.732 21.4746ZM159.348 17.2812L151.907 30.752L159.236 44H157.752L150.423 30.752L157.863 17.2812H159.348ZM156.36 17.2812L148.92 30.752L156.249 44H154.765L147.436 30.752L154.876 17.2812H156.36ZM153.373 17.2812L145.933 30.752L153.262 44H151.777L144.448 30.752L151.889 17.2812H153.373ZM150.386 17.2812L142.927 30.752L150.274 44H148.79L141.442 30.752L148.901 17.2812H150.386ZM139.29 17.2812V44H140.626V17.2812H139.29ZM136.618 17.2812V44H137.954V17.2812H136.618ZM133.946 17.2812V44H135.282V17.2812H133.946ZM131.274 17.2812V44H132.61V17.2812H131.274ZM174.024 31.29H171.909C169.312 31.29 167.314 30.7643 165.916 29.7129C164.518 28.6491 163.819 27.1895 163.819 25.334C163.819 23.6022 164.642 22.1611 166.287 21.0107C167.932 19.848 170.239 19.2666 173.208 19.2666C175.187 19.2666 177.03 19.5387 178.737 20.083C180.457 20.6273 181.885 21.3942 183.023 22.3838L181.984 23.2188C180.97 22.39 179.696 21.7467 178.162 21.2891C176.628 20.8314 174.977 20.6025 173.208 20.6025C170.598 20.6025 168.6 21.0479 167.215 21.9385C165.842 22.8291 165.155 23.9609 165.155 25.334C165.155 26.8184 165.718 27.9626 166.844 28.7666C167.982 29.5583 169.67 29.9541 171.909 29.9541H173.95C176.585 29.9541 178.601 30.486 179.999 31.5498C181.409 32.6012 182.114 34.0547 182.114 35.9102C182.114 37.6419 181.292 39.0892 179.646 40.252C178.001 41.4023 175.694 41.9775 172.726 41.9775C170.746 41.9775 168.897 41.7054 167.178 41.1611C165.471 40.6169 164.048 39.8499 162.91 38.8604L163.949 38.0254C164.964 38.8542 166.238 39.4974 167.771 39.9551C169.305 40.4128 170.957 40.6416 172.726 40.6416C175.336 40.6416 177.327 40.1963 178.7 39.3057C180.086 38.415 180.778 37.2832 180.778 35.9102C180.778 34.4258 180.209 33.2878 179.071 32.4961C177.946 31.6921 176.263 31.29 174.024 31.29ZM174.024 33.9619H171.909C168.47 33.9619 165.817 33.1826 163.949 31.624C162.081 30.0531 161.147 27.9564 161.147 25.334C161.147 24.1341 161.413 23.0085 161.945 21.957C162.477 20.9056 163.238 19.984 164.228 19.1924C165.229 18.3883 166.504 17.7575 168.05 17.2998C169.596 16.8298 171.315 16.5947 173.208 16.5947C175.595 16.5947 177.828 16.9596 179.906 17.6895C181.984 18.4069 183.716 19.415 185.102 20.7139L184.025 21.5117C182.764 20.3737 181.187 19.4954 179.294 18.877C177.401 18.2461 175.373 17.9307 173.208 17.9307C169.868 17.9307 167.246 18.6357 165.341 20.0459C163.436 21.4561 162.483 23.2188 162.483 25.334C162.483 27.5729 163.3 29.348 164.933 30.6592C166.565 31.9704 168.891 32.626 171.909 32.626H173.95C177.612 32.626 179.442 33.7207 179.442 35.9102C179.442 36.8997 178.88 37.7161 177.754 38.3594C176.641 38.9902 174.965 39.3057 172.726 39.3057C171.155 39.3057 169.695 39.1263 168.347 38.7676C166.998 38.3965 165.885 37.8708 165.007 37.1904L166.064 36.374C167.611 37.4378 169.831 37.9697 172.726 37.9697C174.581 37.9697 175.942 37.778 176.808 37.3945C177.674 37.0111 178.106 36.5163 178.106 35.9102C178.106 35.2051 177.803 34.7041 177.197 34.4072C176.591 34.1104 175.534 33.9619 174.024 33.9619ZM174.024 28.6182H171.909C168.297 28.6182 166.491 27.5234 166.491 25.334C166.491 24.3444 167.048 23.5342 168.161 22.9033C169.287 22.2601 170.969 21.9385 173.208 21.9385C174.779 21.9385 176.239 22.124 177.587 22.4951C178.935 22.8538 180.049 23.3734 180.927 24.0537L179.869 24.8701C178.323 23.8063 176.103 23.2744 173.208 23.2744C171.353 23.2744 169.992 23.4661 169.126 23.8496C168.26 24.2331 167.827 24.7279 167.827 25.334C167.827 26.0391 168.13 26.54 168.736 26.8369C169.342 27.1338 170.4 27.2822 171.909 27.2822H174.024C177.463 27.2822 180.117 28.0677 181.984 29.6387C183.852 31.1973 184.786 33.2878 184.786 35.9102C184.786 37.11 184.52 38.2357 183.988 39.2871C183.456 40.3385 182.689 41.2663 181.688 42.0703C180.698 42.862 179.43 43.4928 177.884 43.9629C176.338 44.4206 174.618 44.6494 172.726 44.6494C170.338 44.6494 168.105 44.2907 166.027 43.5732C163.949 42.8434 162.217 41.8291 160.832 40.5303L161.908 39.7324C163.17 40.8704 164.747 41.7549 166.64 42.3857C168.532 43.0042 170.561 43.3135 172.726 43.3135C176.065 43.3135 178.688 42.6084 180.593 41.1982C182.498 39.7881 183.45 38.0254 183.45 35.9102C183.45 33.6712 182.634 31.8962 181.001 30.585C179.368 29.2738 177.043 28.6182 174.024 28.6182Z" fill="black"/>
</svg>
